<svg width="212" height="70" viewBox="0 0 212 70" fill="none" xmlns="http://www.w3.org/2000/svg">
<path d="M90.4936 36.8328C90.4936 46.877 82.6763 54.2784 73.0827 54.2784C63.4892 54.2784 55.6719 46.877 55.6719 36.8328C55.6719 26.7178 63.4892 19.3872 73.0827 19.3872C82.6763 19.3872 90.4936 26.7178 90.4936 36.8328ZM82.8719 36.8328C82.8719 30.5562 78.3412 26.2616 73.0827 26.2616C67.8243 26.2616 63.2935 30.5562 63.2935 36.8328C63.2935 43.0465 67.8243 47.404 73.0827 47.404C78.3412 47.404 82.8719 43.0386 82.8719 36.8328Z" fill="#EA4335"/>
<path d="M128.054 36.8328C128.054 46.877 120.237 54.2784 110.643 54.2784C101.05 54.2784 93.2324 46.877 93.2324 36.8328C93.2324 26.7257 101.05 19.3872 110.643 19.3872C120.237 19.3872 128.054 26.7178 128.054 36.8328ZM120.432 36.8328C120.432 30.5562 115.902 26.2616 110.643 26.2616C105.385 26.2616 100.854 30.5562 100.854 36.8328C100.854 43.0465 105.385 47.404 110.643 47.404C115.902 47.404 120.432 43.0386 120.432 36.8328Z" fill="#FBBC05"/>
<path d="M164.05 20.4412V51.7614C164.05 64.645 156.491 69.907 147.554 69.907C139.142 69.907 134.08 64.2517 132.17 59.6269L138.806 56.8503C139.987 59.6898 142.883 63.0405 147.547 63.0405C153.267 63.0405 156.811 59.4931 156.811 52.8154V50.3063H156.545C154.84 52.4221 151.553 54.2705 147.406 54.2705C138.728 54.2705 130.777 46.6725 130.777 36.8957C130.777 27.0482 138.728 19.3872 147.406 19.3872C151.545 19.3872 154.832 21.2356 156.545 23.2885H156.811V20.449H164.05V20.4412ZM157.351 36.8957C157.351 30.7528 153.275 26.2616 148.086 26.2616C142.828 26.2616 138.422 30.7528 138.422 36.8957C138.422 42.9757 142.828 47.4039 148.086 47.4039C153.275 47.4039 157.351 42.9757 157.351 36.8957Z" fill="#4285F4"/>
<path d="M175.983 2.08301V53.2084H168.549V2.08301H175.983Z" fill="#34A853"/>
<path d="M204.952 42.5746L210.867 46.5388C208.958 49.3782 204.357 54.2705 196.407 54.2705C186.547 54.2705 179.184 46.6096 179.184 36.825C179.184 26.4504 186.61 19.3794 195.554 19.3794C204.56 19.3794 208.966 26.5841 210.406 30.4775L211.196 32.4596L187.995 42.1184C189.771 45.6185 192.533 47.404 196.407 47.404C200.288 47.404 202.98 45.4848 204.952 42.5746ZM186.743 36.298L202.252 29.8247C201.399 27.646 198.832 26.1279 195.812 26.1279C191.939 26.1279 186.547 29.5651 186.743 36.298Z" fill="#EA4335"/>
<path d="M27.5323 32.2944V24.893H52.3458C52.5883 26.183 52.7135 27.7089 52.7135 29.3606C52.7135 34.9136 51.2033 41.7802 46.3361 46.6725C41.6019 51.6277 35.5531 54.2705 27.5402 54.2705C12.6881 54.2705 0.199219 42.1105 0.199219 27.1819C0.199219 12.2532 12.6881 0.0932617 27.5402 0.0932617C35.7565 0.0932617 41.6097 3.33383 46.0074 7.55757L40.8115 12.7802C37.658 9.80709 33.3855 7.49465 27.5323 7.49465C16.6867 7.49465 8.20431 16.2804 8.20431 27.1819C8.20431 38.0834 16.6867 46.8691 27.5323 46.8691C34.5671 46.8691 38.5736 44.0297 41.1402 41.4498C43.2217 39.3576 44.5911 36.3687 45.131 32.2865L27.5323 32.2944Z" fill="#4285F4"/>
</svg>
