<svg width="22" height="22" viewBox="0 0 22 22" fill="none" xmlns="http://www.w3.org/2000/svg">
<path d="M17.8757 20.1673H4.12565C2.84232 20.1673 1.83398 19.159 1.83398 17.8757V4.12565C1.83398 2.84232 2.84232 1.83398 4.12565 1.83398H17.8757C19.159 1.83398 20.1673 2.84232 20.1673 4.12565V17.8757C20.1673 19.159 19.159 20.1673 17.8757 20.1673ZM4.12565 3.66732C3.85065 3.66732 3.66732 3.85065 3.66732 4.12565V17.8757C3.66732 18.1507 3.85065 18.334 4.12565 18.334H17.8757C18.1507 18.334 18.334 18.1507 18.334 17.8757V4.12565C18.334 3.85065 18.1507 3.66732 17.8757 3.66732H4.12565Z" fill="black"/>
<path d="M11.9173 16.9596C11.734 16.9596 11.5507 16.868 11.3673 16.7763L9.07565 14.943C8.70899 14.668 8.61732 14.0263 8.89232 13.6596C9.16732 13.293 9.80899 13.2013 10.1757 13.4763L11.734 14.7596L14.8507 10.9096C15.1257 10.543 15.7673 10.4513 16.134 10.7263C16.5007 11.0013 16.5923 11.643 16.3173 12.0096L12.6507 16.593C12.4673 16.868 12.1923 16.9596 11.9173 16.9596Z" fill="black"/>
<path d="M15.5833 7.79232H6.41667C5.86667 7.79232 5.5 7.42565 5.5 6.87565C5.5 6.32565 5.86667 5.95898 6.41667 5.95898H15.5833C16.1333 5.95898 16.5 6.32565 16.5 6.87565C16.5 7.42565 16.1333 7.79232 15.5833 7.79232Z" fill="black"/>
<path d="M10.0833 11.4583H6.41667C5.86667 11.4583 5.5 11.0917 5.5 10.5417C5.5 9.99167 5.86667 9.625 6.41667 9.625H10.0833C10.6333 9.625 11 9.99167 11 10.5417C11 11.0917 10.6333 11.4583 10.0833 11.4583Z" fill="black"/>
</svg>
