<svg width="800" height="800" viewBox="0 0 800 800" fill="none" xmlns="http://www.w3.org/2000/svg">
<path fill-rule="evenodd" clip-rule="evenodd" d="M200 166.667C181.591 166.667 166.667 181.591 166.667 200V433.333V600C166.667 618.41 181.591 633.333 200 633.333H600C618.41 633.333 633.333 618.41 633.333 600V433.333V200C633.333 181.591 618.41 166.667 600 166.667H200ZM100 200C100 144.772 144.772 100 200 100H600C655.23 100 700 144.772 700 200V433.333V600C700 655.23 655.23 700 600 700H200C144.772 700 100 655.23 100 600V433.333V200Z" fill="white"/>
</svg>
