<svg height="32" viewBox="0 0 32 32" width="32" xmlns="http://www.w3.org/2000/svg"><circle cx="15" cy="19" r="1"/><path d="m27.7 9.3-7-7a.9087.9087 0 0 0 -.7-.3h-10a2.0058 2.0058 0 0 0 -2 2v10h-2a2.0023 2.0023 0 0 0 -2 2v6a2.0023 2.0023 0 0 0 2 2h2v4a2.0058 2.0058 0 0 0 2 2h16a2.0058 2.0058 0 0 0 2-2v-18a.9092.9092 0 0 0 -.3-.7zm-7.7-4.9 5.6 5.6h-5.6zm-14 11.6h9.5972l3.4028 3-3.3926 3h-9.6074zm20 12h-16v-4h5.6089a2.0076 2.0076 0 0 0 1.3135-.4927l3.3833-2.9917a2.0015 2.0015 0 0 0 .01-3.0229l-3.4033-3.0083a1.9961 1.9961 0 0 0 -1.3035-.4844h-5.6089v-10h8v6a2.0058 2.0058 0 0 0 2 2h6z"/><path d="m0 0h32v32h-32z" fill="none"/></svg>