<svg xmlns="http://www.w3.org/2000/svg" width="200" height="200"><path d="M75 21q1.004 3.187 2 6.375l1.125 3.586C79 34 79 34 79 36l-2.457.848C59.535 43.005 47.985 52.258 39 68l-1.215 2.09C29.543 85.3 29.443 102.703 34 119c4.845 14.261 13.404 27.804 27 35l.75-2.5c1.437-4.024 3.274-7.72 5.25-11.5 3.35 2.74 4.818 6.449 6.574 10.293l.996 2.14c1.046 2.248 2.082 4.501 3.118 6.755l2.126 4.583Q82.417 169.381 85 175c-3.38 2.253-6.555 3.031-10.441 3.945l-2.193.53q-2.29.55-4.582 1.094c-2.343.555-4.684 1.12-7.024 1.685l-4.451 1.066-2.128.512C49.234 185 49.234 185 47 185c.655-4.058 1.946-7.54 3.563-11.312l1.378-3.239c.35-.808.7-1.616 1.059-2.449l-2.105-.66c-3.638-1.684-6.317-4.064-9.208-6.778l-1.734-1.625c-15.532-14.9-24.688-35.489-25.246-57.037-.21-23.836 8.129-44.355 24.668-61.65C48.18 31.807 62.264 21 75 21M153 15c-.655 4.058-1.946 7.54-3.562 11.313l-1.38 3.238L147 32l2.105.66c3.638 1.684 6.317 4.064 9.208 6.778l1.734 1.625c14.977 14.368 24.068 34.052 25.156 54.812.43 22.695-6.157 44.16-21.953 60.898C152.97 167.305 139.917 176.906 125 179q-1.004-3.187-2-6.375l-1.125-3.586C121 166 121 166 121 164l2.387-.777c18.86-6.63 31.469-18.578 40.363-36.473 6.928-15.983 6.925-33.164 1-49.375C159.494 64.556 151.816 53.542 140 46l-7 14c-3.182-3.182-4.74-6.279-6.574-10.293l-.996-2.14a1788 1788 0 0 1-3.118-6.754l-2.126-4.584Q117.583 30.619 115 25c3.38-2.253 6.555-3.031 10.441-3.945l2.193-.53q2.29-.55 4.582-1.094c2.343-.555 4.684-1.12 7.024-1.685l4.451-1.066 2.128-.512C150.766 15 150.766 15 153 15"/><path d="M54 71h88c-1.456 3.64-2.381 5.803-4.582 8.793l-1.557 2.134-1.673 2.26-3.512 4.801-1.83 2.491c-3.013 4.115-5.99 8.257-8.971 12.396l-3.195 4.43-1.352 1.874C114 112 114 112 112.365 113.796c-1.912 3.088-1.8 5.545-1.877 9.157l-.054 2a643 643 0 0 0-.121 6.297q-.05 2.14-.104 4.281c-.087 3.49-.147 6.978-.209 10.469H87l.238-5.93c.299-16.356-.792-27.36-12.285-39.87-3.619-4.076-6.775-8.51-10.016-12.888l-1.91-2.504-1.812-2.382-1.59-2.081C57.555 77.356 55.804 74.157 54 71"/></svg>