<svg height="20" viewBox="0 0 20 20" width="20" xmlns="http://www.w3.org/2000/svg"><path d="m0 1.97342193v-.93687708c0-.56810631.45948946-1.02657807 1.02885683-1.03654485h6.94228634c.56936737 0 1.02885683.46843854 1.02885683 1.02657807v.94684386c0 .56810631-.46947836 1.02657807-1.02885683 1.02657807h-6.94228634c-.56936737 0-1.02885683-.45847176-1.02885683-1.02657807zm0 5v-.93687708c0-.56810631.45948946-1.02657807 1.02885683-1.03654485h6.94228634c.56936737 0 1.02885683.46843854 1.02885683 1.02657807v.94684386c0 .56810631-.46947836 1.02657807-1.02885683 1.02657807h-6.94228634c-.56936737 0-1.02885683-.45847176-1.02885683-1.02657807zm0 4.99999997v-.936877c0-.5681064.45948946-1.0265781 1.02885683-1.0365449h6.94228634c.56936737 0 1.02885683.4684385 1.02885683 1.0265781v.9468438c0 .5681063-.46947836 1.0265781-1.02885683 1.0265781h-6.94228634c-.56936737 0-1.02885683-.4584718-1.02885683-1.0265781zm0 5v-.936877c0-.5681064.45948946-1.0265781 1.02885683-1.0365449h6.94228634c.56936737 0 1.02885683.4684385 1.02885683 1.0265781v.9468438c0 .5681063-.46947836 1.0265781-1.02885683 1.0265781h-6.94228634c-.56936737 0-1.02885683-.4584718-1.02885683-1.0265781zm11-14.99999997v-.93687708c0-.56810631.4594895-1.02657807 1.0288568-1.03654485h6.9422864c.5693673 0 1.0288568.46843854 1.0288568 1.02657807v.94684386c0 .56810631-.4694784 1.02657807-1.0288568 1.02657807h-6.9422864c-.5693673 0-1.0288568-.45847176-1.0288568-1.02657807zm0 5v-.93687708c0-.56810631.4594895-1.02657807 1.0288568-1.03654485h6.9422864c.5693673 0 1.0288568.46843854 1.0288568 1.02657807v.94684386c0 .56810631-.4694784 1.02657807-1.0288568 1.02657807h-6.9422864c-.5693673 0-1.0288568-.45847176-1.0288568-1.02657807zm0 4.99999997v-.936877c0-.5681064.4594895-1.0265781 1.0288568-1.0365449h6.9422864c.5693673 0 1.0288568.4684385 1.0288568 1.0265781v.9468438c0 .5681063-.4694784 1.0265781-1.0288568 1.0265781h-6.9422864c-.5693673 0-1.0288568-.4584718-1.0288568-1.0265781zm0 5v-.936877c0-.5681064.4594895-1.0265781 1.0288568-1.0365449h6.9422864c.5693673 0 1.0288568.4684385 1.0288568 1.0265781v.9468438c0 .5681063-.4694784 1.0265781-1.0288568 1.0265781h-6.9422864c-.5693673 0-1.0288568-.4584718-1.0288568-1.0265781z" transform="translate(0 1)"/></svg>