<svg width="22" height="22" viewBox="0 0 22 22" fill="none" xmlns="http://www.w3.org/2000/svg">
<g clip-path="url(#clip0_1774_6534)">
<path d="M15.584 5.50065H20.1673V7.33398H18.334V19.2507C18.334 19.4938 18.2374 19.7269 18.0655 19.8988C17.8936 20.0707 17.6604 20.1673 17.4173 20.1673H4.58398C4.34087 20.1673 4.10771 20.0707 3.9358 19.8988C3.7639 19.7269 3.66732 19.4938 3.66732 19.2507V7.33398H1.83398V5.50065H6.41732V2.75065C6.41732 2.50754 6.5139 2.27438 6.6858 2.10247C6.85771 1.93056 7.09087 1.83398 7.33398 1.83398H14.6673C14.9104 1.83398 15.1436 1.93056 15.3155 2.10247C15.4874 2.27438 15.584 2.50754 15.584 2.75065V5.50065ZM16.5007 7.33398H5.50065V18.334H16.5007V7.33398ZM12.2968 12.834L13.9175 14.4547L12.6213 15.7508L11.0007 14.1302L9.37998 15.7508L8.08382 14.4547L9.70448 12.834L8.08382 11.2133L9.37998 9.91715L11.0007 11.5378L12.6213 9.91715L13.9175 11.2133L12.2968 12.834ZM8.25065 3.66732V5.50065H13.7507V3.66732H8.25065Z" fill="#B40A0A"/>
</g>
<defs>
<clipPath id="clip0_1774_6534">
<rect width="22" height="22" fill="white"/>
</clipPath>
</defs>
</svg>
