<svg fill="none" height="24" viewBox="0 0 24 24" width="24" xmlns="http://www.w3.org/2000/svg"><path d="m11 5v2h2v-2zm0 6v-2h-1c-.26522 0-.51957-.10536-.70711-.29289-.18753-.18754-.29289-.44189-.29289-.70711v-4c0-.26522.10536-.51957.29289-.70711.18754-.18753.44189-.29289.70711-.29289h4c.2652 0 .5196.10536.7071.29289.1875.18754.2929.44189.2929.70711v4c0 .26522-.1054.51957-.2929.70711-.1875.18753-.4419.29289-.7071.29289h-1v2h5c.2652 0 .5196.1054.7071.2929s.2929.4419.2929.7071v3h1c.2652 0 .5196.1054.7071.2929s.2929.4419.2929.7071v4c0 .2652-.1054.5196-.2929.7071s-.4419.2929-.7071.2929h-4c-.2652 0-.5196-.1054-.7071-.2929s-.2929-.4419-.2929-.7071v-4c0-.2652.1054-.5196.2929-.7071s.4419-.2929.7071-.2929h1v-2h-10v2h1c.26522 0 .51957.1054.70711.2929.18753.1875.29289.4419.29289.7071v4c0 .2652-.10536.5196-.29289.7071-.18754.1875-.44189.2929-.70711.2929h-4c-.26522 0-.51957-.1054-.70711-.2929-.18753-.1875-.29289-.4419-.29289-.7071v-4c0-.2652.10536-.5196.29289-.7071.18754-.1875.44189-.2929.70711-.2929h1v-3c0-.2652.10536-.5196.29289-.7071.18754-.1875.44189-.2929.70711-.2929zm-6 6v2h2v-2zm12 0v2h2v-2z" fill="#000"/></svg>