<?xml version="1.0" standalone="no"?>
<!DOCTYPE svg PUBLIC "-//W3C//DTD SVG 20010904//EN"
 "http://www.w3.org/TR/2001/REC-SVG-20010904/DTD/svg10.dtd">
<svg version="1.0" xmlns="http://www.w3.org/2000/svg"
 width="128.000000pt" height="128.000000pt" viewBox="0 0 128.000000 128.000000"
 preserveAspectRatio="xMidYMid meet">

<g transform="translate(0.000000,128.000000) scale(0.100000,-0.100000)"
fill="#000000" stroke="none">
<path d="M450 1213 c-64 -21 -90 -62 -90 -142 l0 -51 -144 0 c-139 0 -146 -1
-173 -24 l-28 -24 0 -426 0 -426 28 -27 27 -28 548 -3 c365 -2 559 0 583 8 69
20 70 24 67 489 l-3 410 -23 23 c-21 21 -33 23 -175 28 l-152 5 -5 66 c-9 117
-34 129 -272 128 -95 0 -180 -3 -188 -6z m378 -85 c7 -7 12 -34 12 -60 l0 -48
-195 0 -195 0 0 54 c0 34 5 56 13 59 6 3 89 6 182 6 121 1 175 -3 183 -11z
m360 -585 l-3 -398 -545 0 -545 0 -3 398 -2 397 550 0 550 0 -2 -397z"/>
<path d="M550 875 c-123 -34 -214 -128 -245 -253 -49 -191 83 -390 279 -420
111 -18 214 15 294 92 143 136 143 358 0 498 -82 80 -216 114 -328 83z m206
-93 c208 -106 192 -410 -26 -487 -240 -85 -451 186 -310 397 72 107 223 148
336 90z"/>
<path d="M600 750 c0 -13 -7 -20 -19 -20 -11 0 -33 -12 -50 -26 -29 -24 -31
-31 -31 -87 1 -93 28 -117 135 -117 l66 0 -3 -32 c-3 -33 -4 -33 -60 -36 -53
-3 -58 -1 -58 18 0 17 -6 20 -40 20 -37 0 -40 -2 -40 -29 0 -38 32 -77 70 -84
18 -4 30 -13 30 -22 0 -11 11 -15 40 -15 29 0 40 4 40 15 0 9 12 18 30 22 48
9 70 46 70 115 0 49 -4 63 -25 83 -21 22 -33 25 -100 25 l-75 0 0 35 0 35 59
0 c50 0 59 -3 64 -20 4 -15 14 -20 41 -20 34 0 36 2 36 34 0 26 -7 41 -31 60
-17 14 -39 26 -50 26 -12 0 -19 7 -19 20 0 17 -7 20 -40 20 -33 0 -40 -3 -40
-20z"/>
</g>
</svg>
