<svg width="22" height="22" viewBox="0 0 22 22" fill="none" xmlns="http://www.w3.org/2000/svg">
<path fill-rule="evenodd" clip-rule="evenodd" d="M2.0625 2.75C2.0625 2.37031 2.37031 2.0625 2.75 2.0625H19.25C19.6297 2.0625 19.9375 2.37031 19.9375 2.75V4.65009C19.9375 5.02979 19.6297 5.33759 19.25 5.33759C18.8703 5.33759 18.5625 5.02979 18.5625 4.65009V4.4375C18.5625 3.88522 18.1148 3.4375 17.5625 3.4375H4.4375C3.88521 3.4375 3.4375 3.88522 3.4375 4.4375V17.5625C3.4375 18.1148 3.88522 18.5625 4.4375 18.5625H17.5625C18.1148 18.5625 18.5625 18.1148 18.5625 17.5625V8.23605C18.5625 7.85635 18.8703 7.54855 19.25 7.54855C19.6297 7.54855 19.9375 7.85635 19.9375 8.23605V19.25C19.9375 19.6297 19.6297 19.9375 19.25 19.9375H2.75C2.37031 19.9375 2.0625 19.6297 2.0625 19.25V2.75Z" fill="black"/>
<path fill-rule="evenodd" clip-rule="evenodd" d="M11.0007 7.10352C10.1147 7.10352 9.39648 7.82172 9.39648 8.70768C9.39648 9.34669 9.77012 9.8999 10.3139 10.158C10.6147 10.3008 10.7699 10.6387 10.6824 10.9599L9.60906 14.8952H12.3922L11.319 10.9599C11.2314 10.6387 11.3866 10.3008 11.6874 10.158C12.2312 9.8999 12.6048 9.34669 12.6048 8.70768C12.6048 7.82172 11.8866 7.10352 11.0007 7.10352ZM8.02149 8.70768C8.02149 7.06233 9.35533 5.72852 11.0007 5.72852C12.646 5.72852 13.9798 7.06233 13.9798 8.70768C13.9798 9.68613 13.5081 10.5535 12.7814 11.0961L13.9556 15.4018C14.012 15.6085 13.9687 15.8297 13.8387 15.9999C13.7086 16.1703 13.5066 16.2702 13.2923 16.2702H8.70899C8.49471 16.2702 8.29269 16.1703 8.16263 15.9999C8.03257 15.8297 7.98934 15.6085 8.04571 15.4018L9.21993 11.0961C8.49322 10.5535 8.02149 9.68613 8.02149 8.70768Z" fill="black"/>
</svg>
