<svg viewBox="0 0 1000 1004.1441" xmlns="http://www.w3.org/2000/svg"><path d="m275 171.144 417 241c8 5 12 17 8 30s-17 12-29 8l-417-242c-33 42-91 50-141 25-50-33-71-100-38-154s100-71 154-42c46 30 63 84 46 134zm475 412-417 242c-8 4-20 4-29-8-4-9-4-21 9-30l416-241c-16-50 4-104 50-134 54-29 121-12 154 42 30 54 13 121-41 154-46 25-104 13-142-25zm-617 184v-459c0-12 9-21 21-21s21 9 21 21v459c50 8 92 54 92 108 0 63-50 113-113 113s-112-50-112-113c0-54 37-100 91-108zm-50 108c0 38 30 71 71 71s71-29 71-71-29-71-71-71-71 33-71 71zm788-304c33-21 46-63 25-96s-63-46-96-25-46 62-25 96c21 33 63 46 96 25zm-733-375c33 21 75 8 95-25s9-75-25-96-79-8-100 25-4 75 30 96z"/></svg>