<svg height="32" viewBox="0 0 32 32" width="32" xmlns="http://www.w3.org/2000/svg"><path d="m20 14h8a2.0023 2.0023 0 0 0 2-2v-8a2.0023 2.0023 0 0 0 -2-2h-8a2.0023 2.0023 0 0 0 -2 2h-9a2.0023 2.0023 0 0 0 -2 2v4h-3a2.0023 2.0023 0 0 0 -2 2v8a2.0023 2.0023 0 0 0 2 2h2v4a2.0023 2.0023 0 0 0 2 2h10a2.0023 2.0023 0 0 0 2 2h8a2.0023 2.0023 0 0 0 2-2v-8a2.0023 2.0023 0 0 0 -2-2h-8a2.0023 2.0023 0 0 0 -2 2v6h-10v-4h4a2.0023 2.0023 0 0 0 2-2v-8a2.0023 2.0023 0 0 0 -2-2h-3v-4h9v6a2.0023 2.0023 0 0 0 2 2zm0 14v-4h8v4zm8-8v2h-8v-2zm-24 0v-4h8v4zm8.0005-6h-8.0005v-2h8zm7.9995-2v-4h8v4zm8-8v2h-8v-2z"/><path d="m0 0h32v32h-32z" fill="none"/></svg>