<svg width="22" height="22" viewBox="0 0 22 22" fill="none" xmlns="http://www.w3.org/2000/svg">
<path fill-rule="evenodd" clip-rule="evenodd" d="M18.9995 20.5908H3V1.4082H12.5987H14.5253H14.5263L18.9995 5.87298V20.5908ZM17.3995 7.79962V18.9993H4.59995V2.99977H12.5987V7.79962H17.3995ZM7.60837 10.1952L10.5067 13.0935L11.6376 11.9626L10.6745 10.9996H11.0008C11.4746 10.9996 11.9378 11.1401 12.3318 11.4034C12.7258 11.6666 13.0328 12.0408 13.2142 12.4785C13.3955 12.9163 13.4429 13.398 13.3505 13.8627C13.258 14.3275 13.0299 14.7543 12.6948 15.0894C12.3598 15.4244 11.9329 15.6526 11.4682 15.7451C11.0034 15.8375 10.5217 15.7901 10.084 15.6087C9.64622 15.4274 9.27205 15.1203 9.00881 14.7264C8.74556 14.3324 8.60505 13.8692 8.60505 13.3954H7.00511C7.0051 14.4558 7.42581 15.473 8.1749 16.2237C8.924 16.9744 9.9403 17.3972 11.0008 17.3994C12.03 17.3523 13.0014 16.9103 13.713 16.1653C14.4246 15.4204 14.8218 14.4298 14.8218 13.3995C14.8218 12.3693 14.4246 11.3787 13.713 10.6337C13.0014 9.88877 12.03 9.44678 11.0008 9.39967H10.6694L11.6376 8.43606L10.5067 7.3052L7.60837 10.1952ZM17.0635 6.19967H14.1986V3.33484L17.0635 6.19967Z" fill="black"/>
</svg>
