<svg width="22" height="22" viewBox="0 0 22 22" fill="none" xmlns="http://www.w3.org/2000/svg">
<path d="M16.6422 15.1323C15.342 15.1323 14.2842 16.227 14.2842 17.5725C14.4135 20.8096 18.8712 20.8087 19 17.5725C19 16.227 17.9423 15.1323 16.6422 15.1323ZM16.6422 18.8861C15.937 18.8861 15.3632 18.2969 15.3632 17.5725C15.4331 15.8299 17.8513 15.8305 17.921 17.5725C17.921 18.2969 17.3475 18.8861 16.6422 18.8861Z" fill="black"/>
<path d="M13.1684 17.0097H6.72098C3.21655 16.8599 3.21601 11.7134 6.72098 11.5635H8.39983C9.11313 11.5388 9.11431 10.4623 8.39983 10.4369H6.72098C4.66914 10.4369 3 12.1639 3 14.2866C3 16.4093 4.66925 18.1362 6.72098 18.1362H13.1684C13.8793 18.1135 13.8836 17.0338 13.1684 17.0097Z" fill="black"/>
<path d="M9.08766 4.9908H15.2832C18.7826 5.14075 18.7821 10.2873 15.2832 10.4369H11.6766L12.7256 9.3206C12.9342 9.09844 12.9309 8.74187 12.7183 8.52399C12.5056 8.30622 12.1643 8.3096 11.9554 8.53154L9.97392 10.6404C9.76816 10.8595 9.76816 11.2103 9.97392 11.4295L11.9555 13.5384C12.1644 13.7606 12.5058 13.7636 12.7184 13.546C12.9311 13.328 12.9343 12.9714 12.7257 12.7494L11.6114 11.5636H15.2832C20.2133 11.3522 20.2137 4.0759 15.2832 3.86433H9.08766C8.37642 3.88697 8.37286 4.96703 9.08766 4.9908Z" fill="black"/>
<path d="M5.35783 6.86769C6.65797 6.86769 7.71578 5.77299 7.71578 4.42751C7.58652 1.19038 3.12883 1.19128 3 4.42751C3 5.77299 4.0577 6.86769 5.35783 6.86769ZM5.35783 3.11391C6.06304 3.11391 6.63682 3.70311 6.63682 4.42751C6.56691 6.17011 4.14865 6.16955 4.07895 4.42751C4.07895 3.70311 4.65252 3.11391 5.35783 3.11391Z" fill="black"/>
</svg>
