<svg width="154" height="300" viewBox="0 0 154 300" fill="none" xmlns="http://www.w3.org/2000/svg">
<path d="M104.867 165.147C106.867 163.163 108.454 160.804 109.537 158.204C110.62 155.605 111.177 152.816 111.177 150C111.177 147.184 110.62 144.395 109.537 141.796C108.454 139.196 106.867 136.837 104.867 134.853L6.94706 37.1467C4.94752 35.1634 3.36042 32.804 2.27736 30.2043C1.19429 27.6046 0.636694 24.8162 0.636694 22C0.636694 19.1837 1.19429 16.3953 2.27736 13.7957C3.36042 11.196 4.94752 8.83653 6.94706 6.85332C10.9441 2.87997 16.3511 0.64975 21.9871 0.64975C27.623 0.64975 33.03 2.87997 37.0271 6.85332L134.947 104.773C146.932 116.773 153.664 133.04 153.664 150C153.664 166.96 146.932 183.227 134.947 195.227L37.0271 293.147C33.0535 297.088 27.6903 299.31 22.0937 299.333C19.2861 299.35 16.5029 298.811 13.9037 297.75C11.3045 296.688 8.94045 295.124 6.94706 293.147C4.94752 291.163 3.36042 288.804 2.27736 286.204C1.19429 283.605 0.636694 280.816 0.636694 278C0.636694 275.184 1.19429 272.395 2.27736 269.796C3.36042 267.196 4.94752 264.837 6.94706 262.853L104.867 165.147Z" fill="black"/>
</svg>
