<svg width="22" height="22" viewBox="0 0 22 22" fill="none" xmlns="http://www.w3.org/2000/svg">
<path fill-rule="evenodd" clip-rule="evenodd" d="M3 20.5908H18.9995V5.87298L14.5263 1.4082H14.5253H12.5987H3V20.5908ZM12.5987 2.99977H4.59995V18.9993H17.3995V7.79962H12.5987V2.99977ZM17.0635 6.19967H14.1986V3.33484L17.0635 6.19967Z" fill="black"/>
<path fill-rule="evenodd" clip-rule="evenodd" d="M10.125 8C9.36562 8 8.75 8.61562 8.75 9.375V12.125H7.375C6.61562 12.125 6 12.7406 6 13.5V16.25C6 16.6297 6.30779 16.9375 6.6875 16.9375H14.9375C15.3172 16.9375 15.625 16.6297 15.625 16.25V11.4375C15.625 10.6781 15.0094 10.0625 14.25 10.0625H12.875V9.375C12.875 8.61562 12.2594 8 11.5 8H10.125ZM11.5 9.375V15.5625H10.125V9.375H11.5ZM14.25 15.5625H12.875V11.4375H14.25V15.5625ZM8.75 15.5625V13.5H7.375V15.5625H8.75Z" fill="black"/>
</svg>
